<?xml version="1.0" encoding="utf-8"?><!-- Uploaded to: SVG Repo, www.svgrepo.com, Generator: SVG Repo Mixer Tools -->
<svg width="800px" height="800px" viewBox="0 0 32 32" id="guitar_Light" data-name="guitar/Light" xmlns="http://www.w3.org/2000/svg">
  <path id="Path" d="M0,0H26V4H24V6H22V8H20v2H18v2H14V8h2V4H14V6H12V8H10v6H8v2H4v2H0Z" fill="#ffffff"/>
  <path id="Path-2" data-name="Path" d="M0,0H6V6H2V4H0Z" transform="translate(26)" fill="#1a1a1a"/>
  <path id="Path-3" data-name="Path" d="M0,0H2V2H0Z" transform="translate(28 2)" fill="#ffffff"/>
  <path id="Path-4" data-name="Path" d="M14,0h2V4H14V8h4v2H16v2H14v2H12v2H10v2H8v2H6V18H4v2H6v2H8v2h2V22H8V20h2V18h2V16h2V14h2v2h6v2H20v2H16v2H14v6H2V26H0V14H4V12H8V10h2V4h2V2h2Z" transform="translate(0 4)" fill="#1a1a1a"/>
  <path id="Path-5" data-name="Path" d="M0,0H2V2H0Z" transform="translate(24 4)" fill="#1a1a1a"/>
  <path id="Path-6" data-name="Path" d="M0,0H2V2H0Z" transform="translate(26 4)" fill="#ffffff"/>
  <path id="Path-7" data-name="Path" d="M0,0H2V2H0Z" transform="translate(22 6)" fill="#1a1a1a"/>
  <path id="Path-8" data-name="Path" d="M0,0H2V2H0Z" transform="translate(24 6)" fill="#ffffff"/>
  <path id="Path-9" data-name="Path" d="M0,0H2V2H0Z" transform="translate(26 6)" fill="#1a1a1a"/>
  <path id="Path-10" data-name="Path" d="M14,0h4V26H0V20H2V18H6V16H8V14H2V12H4V10H6V8H8V6h2V4h2V2h2Z" transform="translate(14 6)" fill="#ffffff"/>
  <path id="Path-11" data-name="Path" d="M0,0H2V2H0Z" transform="translate(20 8)" fill="#1a1a1a"/>
  <path id="Path-12" data-name="Path" d="M0,0H2V2H0Z" transform="translate(22 8)" fill="#ffffff"/>
  <path id="Path-13" data-name="Path" d="M0,0H2V2H0Z" transform="translate(24 8)" fill="#1a1a1a"/>
  <path id="Path-14" data-name="Path" d="M0,0H2V2H0Z" transform="translate(18 10)" fill="#1a1a1a"/>
  <path id="Path-15" data-name="Path" d="M0,0H2V2H0Z" transform="translate(20 10)" fill="#ffffff"/>
  <path id="Path-16" data-name="Path" d="M0,0H2V2H0Z" transform="translate(22 10)" fill="#1a1a1a"/>
  <path id="Path-17" data-name="Path" d="M0,0H2V2H0Z" transform="translate(18 12)" fill="#ffffff"/>
  <path id="Path-18" data-name="Path" d="M0,0H2V2H0Z" transform="translate(20 12)" fill="#1a1a1a"/>
  <path id="Path-19" data-name="Path" d="M0,0H2V2H0Z" transform="translate(16 14)" fill="#ffffff"/>
  <path id="Path-20" data-name="Path" d="M0,0H2V2H0Z" transform="translate(18 14)" fill="#1a1a1a"/>
  <path id="Path-21" data-name="Path" d="M0,0H2V2H0Z" transform="translate(14 16)" fill="#ffffff"/>
  <path id="Path-22" data-name="Path" d="M0,0H2V2H0Z" transform="translate(16 16)" fill="#1a1a1a"/>
  <path id="Path-23" data-name="Path" d="M0,0H2V2H0Z" transform="translate(12 18)" fill="#ffffff"/>
  <path id="Path-24" data-name="Path" d="M0,0H2V2H0Z" transform="translate(10 20)" fill="#ffffff"/>
  <path id="Path-25" data-name="Path" d="M0,0H2V2H0Z" transform="translate(4 22)" fill="#ffffff"/>
  <path id="Path-26" data-name="Path" d="M0,0H2V2H0Z" transform="translate(8 22)" fill="#ffffff"/>
  <path id="Path-27" data-name="Path" d="M0,0H2V2H0Z" transform="translate(6 24)" fill="#ffffff"/>
  <path id="Path-28" data-name="Path" d="M0,0H2V2H0Z" transform="translate(8 26)" fill="#ffffff"/>
  <path id="Path-29" data-name="Path" d="M0,0H2V2H0Z" transform="translate(0 30)" fill="#ffffff"/>
</svg>